<?xml version="1.0" standalone="no"?>
<!DOCTYPE svg PUBLIC "-//W3C//DTD SVG 20010904//EN"
 "http://www.w3.org/TR/2001/REC-SVG-20010904/DTD/svg10.dtd">
<svg version="1.0" xmlns="http://www.w3.org/2000/svg"
 width="700.000000pt" height="700.000000pt" viewBox="0 0 700.000000 700.000000"
 preserveAspectRatio="xMidYMid meet">
<metadata>
Created by potrace 1.14, written by Peter Selinger 2001-2017
</metadata>
<g transform="translate(0.000000,700.000000) scale(0.100000,-0.100000)"
fill="#000000" stroke="none">
<path d="M750 6703 c-102 -17 -209 -75 -287 -155 -68 -71 -108 -136 -141 -233
l-27 -80 0 -2725 c0 -2263 2 -2734 14 -2780 47 -192 193 -355 371 -416 53 -18
123 -19 1950 -19 l1895 0 59 23 c183 69 323 239 361 437 13 65 15 302 15 1591
l0 1514 498 492 c1097 1086 1145 1135 1186 1218 96 197 82 415 -38 590 -25 36
-130 149 -233 251 -174 172 -195 189 -273 227 -100 47 -163 62 -268 62 -96 0
-182 -20 -269 -62 -60 -28 -101 -65 -335 -297 l-268 -265 0 47 c0 27 -7 83
-16 125 -41 200 -177 365 -360 434 l-59 23 -1875 1 c-1031 1 -1886 0 -1900 -3z
m560 -458 c0 -96 -4 -175 -8 -175 -5 0 -26 -17 -46 -37 -111 -111 -115 -281
-9 -394 142 -152 376 -116 475 74 17 32 22 60 22 117 1 92 -25 151 -97 215
l-48 44 3 163 3 163 438 3 437 2 0 -168 0 -168 -44 -37 c-144 -120 -128 -353
32 -456 198 -127 447 14 445 252 -1 75 -39 154 -99 204 l-44 37 0 168 0 168
438 -2 437 -3 3 -161 2 -162 -59 -59 c-48 -48 -63 -71 -76 -118 -55 -189 83
-371 280 -369 84 1 130 20 192 76 61 58 85 108 91 194 4 61 1 80 -20 126 -23
50 -90 128 -110 128 -4 0 -8 79 -8 175 l0 175 248 0 c292 0 324 -6 389 -72 79
-80 87 -113 91 -356 l4 -214 -324 -326 c-178 -180 -699 -707 -1158 -1172
l-835 -845 -304 -761 c-329 -825 -320 -795 -272 -863 24 -33 77 -61 117 -61
16 0 368 136 784 302 l755 302 615 608 615 607 3 -1347 c3 -1400 2 -1423 -39
-1503 -26 -53 -101 -115 -154 -128 -61 -15 -3653 -16 -3709 0 -52 14 -129 88
-157 152 l-24 52 0 2705 0 2705 23 51 c28 63 96 131 148 149 29 11 103 14 297
15 l257 0 0 -175z m2983 -1747 l-1187 -1187 -33 61 c-56 105 -89 128 -183 128
l-61 0 1202 1216 1203 1215 123 -123 123 -123 -1187 -1187z m1515 859 l123
-123 -1187 -1174 c-653 -646 -1191 -1176 -1195 -1178 -4 -2 -19 19 -33 47 -38
74 -77 113 -145 146 l-62 29 1188 1188 c653 653 1188 1188 1188 1188 0 0 55
-55 123 -123z m-2918 -2275 l65 -127 146 -75 147 -75 37 -74 36 -74 -28 -29
c-21 -21 -160 -81 -538 -232 l-510 -204 -27 25 -27 26 19 46 c86 218 363 908
367 914 2 4 59 7 126 7 l122 0 65 -128z"/>
</g>
</svg>
